<svg width="84" height="59" viewBox="0 0 84 59" fill="none" xmlns="http://www.w3.org/2000/svg">
<g id="hanki-logo">
<path id="Union" fill-rule="evenodd" clip-rule="evenodd" d="M9.00915 0C14.5348 0 18.0183 7.37749 18.0183 14.0142C18.0183 19.6107 15.545 22.8832 11.4546 23.7777C11.4009 25.0608 11.3472 26.723 11.2935 28.764C11.2747 29.4782 11.2559 30.2328 11.2371 31.0278L11.4184 36.6492C11.7842 36.6079 12.1408 36.5756 12.4883 36.5524C12.9308 36.5229 13.4028 36.4934 13.9044 36.4639C15.2614 36.4049 16.5743 36.3312 17.8428 36.2427C19.1409 36.1542 20.2767 36.1542 21.2502 36.2427C21.3978 32.0239 21.442 28.8673 21.383 26.7727C21.324 24.6486 21.2945 23.3948 21.2945 23.0112C21.2945 22.8342 21.4863 22.6277 21.8698 22.3917C22.2533 22.1557 22.6663 21.9492 23.1088 21.7722C23.5809 21.5657 24.0086 21.4329 24.3922 21.3739C24.7757 21.2854 24.9822 21.3001 25.0117 21.4182C25.0412 21.6247 25.0412 22.1409 25.0117 22.967C25.0117 23.793 24.9969 24.9583 24.9674 26.4629V31.9944C24.9969 34.2071 25.0559 36.7884 25.1444 39.7386C25.0854 41.0957 25.0559 42.5117 25.0559 43.9868C25.0559 45.2554 25.0854 46.6714 25.1444 48.235C25.2034 49.7986 25.3362 51.3769 25.5427 52.97C25.1592 53.2945 24.7462 53.5453 24.3036 53.7223C23.8611 53.8993 23.4334 54.0468 23.0203 54.1648C22.5483 54.2828 22.0763 54.3713 21.6043 54.4303C21.3387 54.4598 21.1175 54.4008 20.9405 54.2533C20.793 54.1353 20.6897 53.9731 20.6307 53.7666C20.5717 53.5895 20.5275 53.3978 20.498 53.1913V52.616V51.5097C20.5275 51.1852 20.557 50.9197 20.5865 50.7131C20.6455 49.4446 20.7192 47.9105 20.8077 46.1109C20.8962 44.3113 20.9847 42.3052 21.0732 40.0926C20.8667 40.0631 20.675 40.0484 20.498 40.0484C20.3209 40.0189 20.1144 39.9893 19.8784 39.9599C18.5509 39.8713 17.1053 39.8713 15.5417 39.9599C14.1838 40.0382 12.849 40.1628 11.5373 40.3336L12.0122 55.0559C12.0122 59.06 6.0061 59.06 6.0061 55.0559L6.45003 41.294C6.36607 41.3213 6.26947 41.3486 6.16022 41.3759C5.80621 41.4939 5.43744 41.4792 5.05392 41.3317C4.6999 41.1547 4.37538 40.8891 4.08037 40.5351C3.78535 40.1811 3.54934 39.7681 3.37233 39.2961C3.22482 38.824 3.15107 38.3225 3.15107 37.7915C3.53459 37.7325 3.94761 37.6735 4.39013 37.6145C4.83266 37.526 5.24568 37.4522 5.6292 37.3932C5.9541 37.3499 6.27106 37.3066 6.58006 37.2633L7.00712 24.0244V23.8642C2.65269 23.1135 0 19.8101 0 14.0142C0 7.37749 3.48354 0 9.00915 0Z" fill="#7A44FF"/>
<path id="Union_2" fill-rule="evenodd" clip-rule="evenodd" d="M72.8484 39.1613C72.2879 38.5713 71.6978 38.1435 71.0783 37.878C71.9929 37.052 72.7451 36.2702 73.3352 35.5326C73.9252 34.7656 74.3825 34.0723 74.707 33.4528C75.061 32.8037 75.2823 32.258 75.3708 31.8154C75.4888 31.3434 75.5035 30.9894 75.415 30.7534C75.297 30.4289 74.8988 30.2814 74.2202 30.3109C73.9547 30.3109 73.6597 30.3699 73.3352 30.4879C73.0697 30.5764 72.7599 30.7091 72.4059 30.8861C72.0814 31.0336 71.7568 31.2254 71.4323 31.4614C71.3733 32.317 71.1521 33.1283 70.7685 33.8953C70.385 34.6328 69.913 35.3261 69.3525 35.9751C68.7919 36.6242 68.2019 37.2142 67.5824 37.7452C66.9628 38.2763 66.3728 38.763 65.8123 39.2056C65.8418 38.527 65.8565 37.819 65.8565 37.0815C65.886 36.3439 65.9303 35.5769 65.9893 34.7803C66.0483 33.4528 66.1221 31.9777 66.2106 30.3551C66.2696 28.9685 66.3433 27.3755 66.4318 25.5759C66.5203 23.7763 66.6088 21.8587 66.6973 19.8231C66.7268 19.5576 66.5056 19.4248 66.0336 19.4248C65.591 19.4248 65.0895 19.4986 64.529 19.6461C63.9684 19.7936 63.4522 20.0001 62.9801 20.2656C62.5376 20.5016 62.3164 20.7376 62.3164 20.9736L62.5819 46.8169C62.6114 47.761 62.8474 48.3363 63.2899 48.5428C63.7619 48.7788 64.293 48.8083 64.883 48.6313C65.06 48.6018 65.2518 48.5428 65.4583 48.4543C65.6058 48.3953 65.7828 48.3215 65.9893 48.233C66.1958 48.115 66.4023 47.9823 66.6088 47.8348C66.3728 47.4807 66.1811 46.7874 66.0336 45.7549C65.9155 44.7223 65.8418 43.4095 65.8123 41.8164C66.2253 41.5804 66.6973 41.2854 67.2284 40.9314C67.7889 40.5479 68.3937 40.1054 69.0427 39.6038C69.4262 39.7808 69.736 40.0316 69.972 40.3561C70.2375 40.6806 70.444 41.0347 70.5915 41.4182C70.739 41.8017 70.8423 42.2 70.9013 42.613C70.9603 43.026 71.0046 43.4243 71.0341 43.8078C71.1226 44.7223 71.2553 45.6074 71.4323 46.4629C71.6093 47.3185 71.8748 48.0708 72.2289 48.7198C72.5829 49.3688 73.0697 49.8556 73.6892 50.1801C74.3087 50.5341 75.1053 50.6669 76.0788 50.5784C76.4918 50.5784 76.8901 50.5194 77.2736 50.4014C77.5981 50.3424 77.9374 50.2391 78.2914 50.0916C78.6749 49.9441 78.9995 49.7523 79.265 49.5163C78.2619 49.1623 77.4359 48.7493 76.7868 48.2773C76.1673 47.7757 75.6658 47.2152 75.2823 46.5957C74.8988 45.9467 74.6037 45.2239 74.3972 44.4273C74.1907 43.6308 74.0285 42.731 73.9105 41.7279C73.7629 40.5774 73.4089 39.7218 72.8484 39.1613ZM79.1322 32.2137C78.6602 32.4202 78.4242 32.612 78.4242 32.789C78.4537 33.4675 78.5127 34.4853 78.6012 35.8424C78.6897 37.17 78.675 39.0581 78.557 41.5067C78.498 42.7458 78.4832 43.8078 78.5127 44.6929C78.5422 45.5484 78.5865 46.2564 78.6455 46.817C78.7045 47.348 78.7635 47.761 78.8225 48.056C78.8815 48.3511 78.9405 48.5576 78.9995 48.6756C79.029 48.7936 79.206 48.8526 79.5305 48.8526C79.855 48.8526 80.1943 48.8083 80.5483 48.7198C80.9023 48.6608 81.2269 48.5576 81.5219 48.4101C81.8169 48.2625 81.9644 48.115 81.9644 47.9675C81.9349 47.1415 81.9349 46.3302 81.9644 45.5337C81.9939 44.7371 82.0381 44.0143 82.0972 43.3653C82.1562 42.5983 82.2152 41.8902 82.2742 41.2412C82.3037 40.6217 82.3627 39.8694 82.4512 38.9843C82.5397 38.0698 82.6282 37.17 82.7167 36.2849C82.8052 35.3704 82.8789 34.5148 82.9379 33.7183C82.9969 32.8923 83.0264 32.258 83.0264 31.8155C83.0264 31.5794 82.7757 31.4762 82.2742 31.5057C81.8021 31.5057 81.2711 31.5794 80.6811 31.727C80.1205 31.845 79.6043 32.0072 79.1322 32.2137ZM83.2035 24.5138C82.6724 24.1598 82.1119 23.9828 81.5219 23.9828C80.8728 23.9828 80.3418 24.0861 79.9288 24.2926C79.5158 24.4991 79.1913 24.7646 78.9552 25.0891C78.7192 25.3841 78.557 25.7234 78.4685 26.1069C78.38 26.4609 78.3357 26.7855 78.3357 27.0805C78.3357 27.3165 78.3652 27.5672 78.4242 27.8328C78.4832 28.0983 78.5865 28.349 78.734 28.585C78.911 28.7916 79.147 28.9833 79.442 29.1603C79.737 29.3078 80.1205 29.3816 80.5926 29.3816C80.9466 29.3816 81.3301 29.2931 81.7431 29.1161C82.1562 28.9096 82.5249 28.644 82.8494 28.3195C83.174 27.995 83.4395 27.6262 83.646 27.2132C83.882 26.8002 84 26.3724 84 25.9299C84 25.3399 83.7345 24.8679 83.2035 24.5138ZM80.9908 27.9213C80.7843 28.0393 80.5926 28.0983 80.4156 28.0983C80.1796 28.0983 80.0615 27.9508 80.0615 27.6557C80.0615 27.4787 80.1205 27.3017 80.2386 27.1247C80.3861 26.9182 80.5631 26.7412 80.7696 26.5937C80.9761 26.4167 81.1826 26.2692 81.3891 26.1512C81.6251 26.0332 81.8169 25.9742 81.9644 25.9742C82.2004 25.9742 82.3184 26.0922 82.3184 26.3282C82.3184 26.4757 82.2447 26.6527 82.0972 26.8592C81.9791 27.0657 81.8169 27.2575 81.6104 27.4345C81.4334 27.6115 81.2269 27.7738 80.9908 27.9213ZM50.4125 47.2595C50.383 47.4365 50.2207 47.6282 49.9257 47.8347C49.6602 48.0118 49.3357 48.174 48.9522 48.3215C48.5982 48.469 48.2589 48.5575 47.9344 48.587C47.6099 48.646 47.3886 48.6165 47.2706 48.4985C47.1526 48.3805 46.9608 48.1593 46.6953 47.8347C46.4298 47.5102 46.2675 46.9792 46.2085 46.2417C46.1495 45.4746 46.12 44.5158 46.12 43.3653C46.12 42.1852 46.1053 40.8871 46.0758 39.4711V37.701C46.0758 37.17 46.061 36.5504 46.0315 35.8424C46.0315 35.1344 46.0168 34.3968 45.9873 33.6298C46.2528 33.4823 46.5183 33.3495 46.7838 33.2315C47.0788 33.084 47.3443 32.966 47.5804 32.8775C47.8459 32.7595 48.0966 32.671 48.3326 32.612C48.9522 32.435 49.4242 32.3317 49.7487 32.3022C50.0732 32.2727 50.265 32.376 50.324 32.612C50.3535 32.789 50.3388 33.2168 50.2797 33.8953C50.2207 34.4853 50.147 35.3851 50.0585 36.5947C49.97 37.7747 49.8225 39.4268 49.616 41.5509C49.9995 40.6069 50.3092 39.7956 50.5453 39.1171C50.8108 38.4385 51.032 37.8927 51.209 37.4797C51.3861 36.9782 51.5483 36.5799 51.6958 36.2849C51.8433 35.9014 52.0351 35.4736 52.2711 35.0016C52.5071 34.5296 52.7431 34.087 52.9791 33.674C53.2446 33.261 53.4807 32.8922 53.6872 32.5677C53.9232 32.2432 54.1002 32.0514 54.2182 31.9924C54.3067 31.9334 54.5722 31.9334 55.0147 31.9924C55.4573 32.0514 55.9293 32.199 56.4308 32.435C56.9323 32.6415 57.4191 32.9512 57.8911 33.3643C58.3632 33.7478 58.6729 34.2198 58.8204 34.7803C58.9974 35.4294 59.0564 36.2849 58.9974 37.347C58.9679 38.409 58.8942 39.5006 58.7762 40.6216C58.6877 41.7427 58.6139 42.8047 58.5549 43.8078C58.4959 44.8108 58.5549 45.5779 58.7319 46.1089C58.7909 46.4039 58.8794 46.6694 58.9974 46.9055C59.0564 47.1415 59.1302 47.3627 59.2187 47.5692C59.3367 47.7462 59.4547 47.879 59.5727 47.9675C58.8647 48.292 58.2894 48.528 57.8469 48.6755C57.4044 48.823 57.0651 48.9263 56.8291 48.9853C56.5341 49.0738 56.3276 49.1033 56.2096 49.0738C55.944 48.9853 55.708 48.764 55.5015 48.41C55.3245 48.056 55.1622 47.4955 55.0147 46.7284C54.9557 46.4924 54.9262 46.1089 54.9262 45.5779C54.9557 45.0174 55 44.3978 55.059 43.7193C55.118 43.0113 55.177 42.2885 55.236 41.5509C55.3245 40.7839 55.3835 40.0759 55.413 39.4268C55.472 38.7483 55.5163 38.173 55.5458 37.701C55.5753 37.1995 55.5753 36.8602 55.5458 36.6832C55.3983 36.1522 55.1917 35.7834 54.9262 35.5769C54.6607 35.3409 54.4542 35.3114 54.3067 35.4884C53.9232 35.9309 53.5102 36.6537 53.0676 37.6567C52.6546 38.6303 52.2563 39.7071 51.8728 40.8871C51.4893 42.0377 51.1648 43.1883 50.8993 44.3388C50.6338 45.4894 50.4715 46.4629 50.4125 47.2595ZM42.2702 46.7727C42.1522 46.5957 42.0637 46.4039 42.0046 46.1974C41.9456 45.9909 41.9161 45.4894 41.9161 44.6928C41.9456 43.8668 41.9751 42.908 42.0046 41.8164C42.0637 40.7249 42.1227 39.5743 42.1817 38.3648C42.2407 37.1257 42.2849 35.9899 42.3144 34.9573C42.3734 33.8953 42.4029 33.025 42.4029 32.3465C42.4029 31.6384 42.3734 31.2697 42.3144 31.2402C42.2259 31.2107 42.0489 31.2107 41.7834 31.2402C41.5179 31.2402 41.2229 31.2844 40.8983 31.3729C40.5738 31.4614 40.2788 31.5794 40.0133 31.7269C39.7478 31.8449 39.5708 31.9777 39.4823 32.1252C39.4233 32.3317 39.3348 32.7447 39.2168 33.3643C39.1283 33.8953 39.025 34.6771 38.907 35.7096C38.8185 36.7127 38.7005 38.0993 38.553 39.8693C38.1695 41.1084 37.7564 42.082 37.3139 42.79C36.9009 43.498 36.5026 44.0291 36.1191 44.3831C35.6766 44.7961 35.2193 45.0764 34.7473 45.2239C33.9507 45.3714 33.3165 45.0026 32.8444 44.1176C32.4019 43.2325 32.3282 42.0672 32.6232 40.6216C32.8297 39.4711 33.1247 38.4975 33.5082 37.701C33.8917 36.9044 34.3343 36.2259 34.8358 35.6654C35.3668 35.1049 35.9421 34.6328 36.5616 34.2493C37.1812 33.8363 37.8449 33.4675 38.553 33.143C38.494 32.907 38.4202 32.7005 38.3317 32.5235C38.2432 32.317 38.1695 32.1547 38.1104 32.0367C38.0219 31.9187 37.9482 31.8154 37.8892 31.7269C37.7122 31.4909 37.5057 31.3582 37.2697 31.3287C37.0336 31.2992 36.7534 31.3287 36.4289 31.4172C36.3109 31.4467 36.0453 31.5499 35.6323 31.7269C35.2488 31.8744 34.7768 32.1252 34.2162 32.4792C33.6852 32.8037 33.1247 33.2315 32.5347 33.7625C31.9446 34.2641 31.3841 34.8836 30.8531 35.6211C30.3221 36.3587 29.8648 37.1995 29.4813 38.1435C29.0977 39.0876 28.8617 40.1644 28.7732 41.3739C28.6847 42.5245 28.7585 43.557 28.9945 44.4716C29.2305 45.3861 29.5698 46.1679 30.0123 46.817C30.4843 47.4365 31.0448 47.9085 31.6939 48.233C32.3724 48.528 33.0804 48.646 33.818 48.587C34.408 48.528 34.9833 48.3363 35.5438 48.0118C36.0453 47.7758 36.5469 47.407 37.0484 46.9055C37.5794 46.3744 38.0514 45.6664 38.4645 44.7813C38.5235 45.4599 38.5972 46.0204 38.6857 46.4629C38.8037 46.876 38.9365 47.2005 39.084 47.4365C39.2315 47.7315 39.3938 47.9528 39.5708 48.1003C40.0723 48.4248 40.5886 48.587 41.1196 48.587C41.6506 48.587 42.0489 48.5428 42.3144 48.4543C42.4029 48.4248 42.5062 48.3658 42.6242 48.2773C42.8307 48.1298 43.0372 47.8495 43.2437 47.4365C43.0077 47.407 42.8012 47.3332 42.6242 47.2152C42.4767 47.0677 42.3587 46.9202 42.2702 46.7727Z" fill="black"/>
</g>
</svg>
