<svg width="24" height="24" viewBox="0 0 24 24" fill="none" xmlns="http://www.w3.org/2000/svg">
<g id="fi-sr-star" clip-path="url(#clip0_22210_69727)">
<path id="Vector" d="M1.32719 12.4004L4.88719 15.0004L3.53519 19.1874C3.3167 19.8368 3.31394 20.5394 3.5273 21.1905C3.74067 21.8416 4.15874 22.4063 4.71919 22.8004C5.27005 23.2072 5.93759 23.4251 6.62235 23.4217C7.30711 23.4183 7.97244 23.1937 8.51919 22.7814L12.0002 20.2194L15.4822 22.7784C16.032 23.1829 16.696 23.4026 17.3786 23.4059C18.0611 23.4092 18.7272 23.196 19.281 22.797C19.8347 22.3979 20.2477 21.8335 20.4605 21.1849C20.6733 20.5363 20.6749 19.837 20.4652 19.1874L19.1132 15.0004L22.6732 12.4004C23.2223 11.999 23.6306 11.4342 23.8395 10.7868C24.0485 10.1395 24.0476 9.44263 23.8369 8.79583C23.6262 8.14903 23.2164 7.58537 22.6662 7.18535C22.116 6.78533 21.4535 6.56941 20.7732 6.56844H16.4002L15.0732 2.43244C14.8645 1.7814 14.4545 1.21346 13.9022 0.810508C13.3499 0.407559 12.6839 0.19043 12.0002 0.19043C11.3165 0.19043 10.6505 0.407559 10.0982 0.810508C9.54593 1.21346 9.13587 1.7814 8.92719 2.43244L7.60019 6.56844H3.23119C2.55094 6.56941 1.88838 6.78533 1.33817 7.18535C0.787961 7.58537 0.378234 8.14903 0.167514 8.79583C-0.043205 9.44263 -0.0441377 10.1395 0.16485 10.7868C0.373837 11.4342 0.782054 11.999 1.33119 12.4004H1.32719Z" fill="#FFC14A"/>
</g>
<defs>
<clipPath id="clip0_22210_69727">
<rect width="24" height="24" fill="white"/>
</clipPath>
</defs>
</svg>
