<svg width="18" height="18" viewBox="0 0 18 18" fill="none" xmlns="http://www.w3.org/2000/svg">
<g id="Leading Icon" clip-path="url(#clip0_22210_74905)">
<path id="Vector" d="M16.8487 7.3995C15.2445 7.3995 13.7572 6.8865 12.5437 6.015V12.3038C12.5437 15.4448 9.98846 17.9993 6.84821 17.9993C5.63471 17.9993 4.50896 17.6167 3.58421 16.9672C2.11571 15.936 1.15271 14.2305 1.15271 12.3038C1.15271 9.16275 3.70796 6.6075 6.84896 6.6075C7.10996 6.6075 7.36496 6.62925 7.61621 6.663V7.39575V9.822C7.37321 9.74625 7.11671 9.702 6.84896 9.702C5.41496 9.702 4.24796 10.869 4.24796 12.3038C4.24796 13.3028 4.81496 14.1705 5.64296 14.6063C6.00371 14.796 6.41396 14.9047 6.84971 14.9047C8.25071 14.9047 9.39371 13.7902 9.44621 12.4012L9.44846 0H12.543C12.543 0.2685 12.5692 0.53025 12.6157 0.78525C12.834 1.96425 13.5337 2.976 14.5035 3.60825C15.1785 4.0485 15.984 4.30575 16.848 4.30575L16.8487 7.3995Z" fill="white"/>
</g>
<defs>
<clipPath id="clip0_22210_74905">
<rect width="18" height="18" fill="white"/>
</clipPath>
</defs>
</svg>
